<svg id="Layer_1" data-name="Layer 1" xmlns="http://www.w3.org/2000/svg" viewBox="0 0 36.29 32"><defs><style>.cls-1{fill:#3c81c3;}.cls-2{fill:none;}.cls-3{fill:#8cbde5;}.cls-4{fill:#fff;}</style></defs><title>logo</title><path class="cls-1" d="M35.07,0,18.15,3.79V32l.15,0,17.2-3.82a1.05,1.05,0,0,0,.79-1V1A1,1,0,0,0,35.07,0Z" transform="translate(0 0)"/><path class="cls-2" d="M18.3,32" transform="translate(0 0)"/><path class="cls-3" d="M18,32l.16,0V3.79L1.23,0A1,1,0,0,0,0,1V27.18a1.07,1.07,0,0,0,.79,1L18,32Z" transform="translate(0 0)"/><path class="cls-4" d="M21.94,8.8a2.31,2.31,0,0,0,1.71,2.92,2.35,2.35,0,0,0,2.81-1.93,2.32,2.32,0,1,0-4.52-1Z" transform="translate(0 0)"/><path class="cls-4" d="M21.94,18.43a2.31,2.31,0,0,0,1.71,2.91,2.35,2.35,0,0,0,2.81-1.93,2.32,2.32,0,1,0-4.52-1Z" transform="translate(0 0)"/><path class="cls-4" d="M14.35,18.43a2.31,2.31,0,0,1-1.7,2.91,2.36,2.36,0,0,1-2.82-1.93,2.37,2.37,0,0,1,1.74-2.93A2.34,2.34,0,0,1,14.35,18.43Z" transform="translate(0 0)"/><path class="cls-4" d="M8.3,7.34a2.31,2.31,0,0,1-1.7,2.91A2.36,2.36,0,0,1,3.78,8.32,2.37,2.37,0,0,1,5.52,5.39,2.33,2.33,0,0,1,8.3,7.34Z" transform="translate(0 0)"/></svg>