<svg id="Layer_1" data-name="Layer 1" xmlns="http://www.w3.org/2000/svg" viewBox="0 0 154.39 37.88"><defs><style>.cls-1{fill:#8cbde5;}.cls-2{fill:#3c81c3;}.cls-3{fill:none;}.cls-4{fill:#fff;}</style></defs><title>logo edubilitas 3</title><text/><path class="cls-1" d="M52.06,12.6v2h-7V21h3.24l3.08,0a13.34,13.34,0,0,0,2-.16V23H42.52a13.2,13.2,0,0,0,.16-2.13c0-.94,0-2,0-3.22V10.39c0-1.22,0-2.29,0-3.22A13.45,13.45,0,0,0,42.52,5H53v2H45.05V12.6Z" transform="translate(0 0)"/><path class="cls-1" d="M67.5,16.48a23.84,23.84,0,0,0,.27,3.91A14.48,14.48,0,0,0,68.43,23H66.21a8.47,8.47,0,0,1-.32-.95c-.13-.43-.25-.87-.35-1.33a6.51,6.51,0,0,1-2,1.92,4.74,4.74,0,0,1-2.49.67,4.61,4.61,0,0,1-2-.43,4.33,4.33,0,0,1-1.55-1.2,5.52,5.52,0,0,1-1-1.88,8.26,8.26,0,0,1-.35-2.46,9,9,0,0,1,.45-2.95,6.78,6.78,0,0,1,1.24-2.25,5.34,5.34,0,0,1,1.85-1.43A5.28,5.28,0,0,1,62,10.2a4,4,0,0,1,.82.09,6.56,6.56,0,0,1,.84.23,8.68,8.68,0,0,1,.84.34l.76.39V7.8c0-1,0-1.86-.07-2.6a11.24,11.24,0,0,0-.24-1.89H67.5Zm-2.27-3.26a9.45,9.45,0,0,0-.85-.42,4.87,4.87,0,0,0-.78-.28,5,5,0,0,0-.77-.17,5.71,5.71,0,0,0-.86-.06,3,3,0,0,0-1.34.32,3.6,3.6,0,0,0-1.14.93,4.5,4.5,0,0,0-.8,1.47,6.26,6.26,0,0,0-.29,2,5.92,5.92,0,0,0,.73,3.26,2.6,2.6,0,0,0,2.34,1.11,2.45,2.45,0,0,0,1.13-.28,5,5,0,0,0,1.06-.74,6.75,6.75,0,0,0,1.57-2.24Z" transform="translate(0 0)"/><path class="cls-1" d="M80.8,23c-.06-.14-.12-.3-.19-.49s-.13-.39-.19-.6-.12-.44-.17-.68a5.58,5.58,0,0,1-.13-.69,9.08,9.08,0,0,1-2.31,2.07,4.89,4.89,0,0,1-2.49.7c-2.63,0-3.94-1.77-3.94-5.29v-4.7c0-.32,0-.63,0-.93s0-.61-.07-.92-.08-.65-.13-1h2.52v6.83a13.3,13.3,0,0,0,.1,1.8,4,4,0,0,0,.35,1.24,1.64,1.64,0,0,0,.65.72,1.91,1.91,0,0,0,1,.24A2.48,2.48,0,0,0,76.91,21a5.69,5.69,0,0,0,1.17-.83,7.63,7.63,0,0,0,1-1.11,5.6,5.6,0,0,0,.71-1.18V13.3c0-.33,0-.64,0-.93s0-.6-.07-.9-.08-.64-.13-1h2.52v7a22.25,22.25,0,0,0,.2,3.15,12.26,12.26,0,0,0,.6,2.39Z" transform="translate(0 0)"/><path class="cls-1" d="M88.12,3.31v9.54a9.42,9.42,0,0,1,.93-1A6.16,6.16,0,0,1,90.14,11a5.1,5.1,0,0,1,1.26-.56,5,5,0,0,1,1.46-.21,3.27,3.27,0,0,1,1.71.46,4.36,4.36,0,0,1,1.34,1.27,6.47,6.47,0,0,1,.88,2,9.26,9.26,0,0,1,.31,2.48,9.14,9.14,0,0,1-.42,2.86,6.59,6.59,0,0,1-1.2,2.19,5.24,5.24,0,0,1-1.88,1.41,6.12,6.12,0,0,1-2.47.49,9.79,9.79,0,0,1-1.45-.11c-.47-.07-.92-.16-1.36-.27s-.86-.23-1.27-.35l-1.21-.38V7.64c0-.52,0-1,0-1.58s0-1,0-1.51-.06-.9-.11-1.24Zm0,17.41c.3.13.58.23.83.32l.73.21a6.12,6.12,0,0,0,.71.11,5.8,5.8,0,0,0,.74,0,3.41,3.41,0,0,0,2.69-1.27,4.28,4.28,0,0,0,.78-1.45,6,6,0,0,0,.29-1.89,8.09,8.09,0,0,0-.19-1.85,4.6,4.6,0,0,0-.53-1.4,2.71,2.71,0,0,0-.87-.88,2.33,2.33,0,0,0-1.18-.3,2.85,2.85,0,0,0-1.16.25,4.29,4.29,0,0,0-1.1.71,6,6,0,0,0-1,1.08,6.73,6.73,0,0,0-.76,1.4Z" transform="translate(0 0)"/><path class="cls-1" d="M100.18,6.45a2,2,0,0,1,.11-.65,1.76,1.76,0,0,1,.31-.53,1.42,1.42,0,0,1,.49-.35,1.45,1.45,0,0,1,.63-.13,1.53,1.53,0,0,1,.64.13,1.46,1.46,0,0,1,.5.35,1.82,1.82,0,0,1,.33.53,1.57,1.57,0,0,1,.13.65,1.53,1.53,0,0,1-.13.64,1.59,1.59,0,0,1-.33.53,1.49,1.49,0,0,1-.5.36,1.53,1.53,0,0,1-.64.13,1.47,1.47,0,0,1-1.12-.49,1.55,1.55,0,0,1-.31-.53A1.91,1.91,0,0,1,100.18,6.45Zm2.71,10.71c0,.39,0,.85,0,1.39s0,1.08,0,1.63,0,1.08.08,1.58.06.91.1,1.24h-2.52V16.48c0-.6,0-1.19,0-1.77s0-1.14,0-1.66,0-1-.06-1.45,0-.83-.09-1.15h2.46Z" transform="translate(0 0)"/><path class="cls-1" d="M109.84,17.16c0,.39,0,.85,0,1.39s0,1.07,0,1.62,0,1.08.07,1.58.06.91.11,1.25h-2.53V9.09c0-1.19,0-2.28-.06-3.25s-.1-1.82-.18-2.53h2.52Z" transform="translate(0 0)"/><path class="cls-1" d="M114.09,6.45a1.74,1.74,0,0,1,.11-.65,1.57,1.57,0,0,1,.31-.53,1.42,1.42,0,0,1,.49-.35,1.38,1.38,0,0,1,.62-.13,1.5,1.5,0,0,1,.64.13,1.41,1.41,0,0,1,.51.35,1.82,1.82,0,0,1,.33.53,1.75,1.75,0,0,1,.12.65,1.69,1.69,0,0,1-.12.64,1.59,1.59,0,0,1-.33.53,1.43,1.43,0,0,1-.51.36,1.5,1.5,0,0,1-.64.13A1.38,1.38,0,0,1,115,8a1.45,1.45,0,0,1-.49-.36,1.4,1.4,0,0,1-.31-.53A1.69,1.69,0,0,1,114.09,6.45Zm2.7,10.71c0,.39,0,.85,0,1.39s0,1.08,0,1.63,0,1.08.07,1.58.07.91.11,1.24h-2.52V16.48c0-.6,0-1.19,0-1.77s0-1.14,0-1.66,0-1-.06-1.45-.06-.83-.1-1.15h2.46Z" transform="translate(0 0)"/><path class="cls-1" d="M119.5,10.76H122v-4h2.28v4h4v1.78h-4V18.2a10.86,10.86,0,0,0,.09,1.55,2.92,2.92,0,0,0,.28.94,1,1,0,0,0,.49.46,1.7,1.7,0,0,0,.71.13A3.59,3.59,0,0,0,127,21a8.56,8.56,0,0,0,1.47-.69v2a5.65,5.65,0,0,1-1.62.77,5.14,5.14,0,0,1-1.43.22,5.31,5.31,0,0,1-1.35-.17,2.59,2.59,0,0,1-1.1-.58,2.76,2.76,0,0,1-.75-1.12,4.9,4.9,0,0,1-.27-1.76V12.54H119.5Z" transform="translate(0 0)"/><path class="cls-1" d="M140.48,23a3.89,3.89,0,0,1-.24-.89c-.07-.39-.12-.81-.17-1.27s-.08-.9-.1-1.33,0-.79,0-1.06V17.22c-.26.69-.58,1.4-.94,2.13a11.71,11.71,0,0,1-1.25,2,6.55,6.55,0,0,1-1.55,1.44,3.21,3.21,0,0,1-1.8.56,3.14,3.14,0,0,1-1.45-.35,3.44,3.44,0,0,1-1.18-1,5.23,5.23,0,0,1-.78-1.68,8.47,8.47,0,0,1-.28-2.3,10.68,10.68,0,0,1,.39-2.87,7.64,7.64,0,0,1,1.21-2.48,6,6,0,0,1,2.07-1.75,6.29,6.29,0,0,1,3-.66,17.2,17.2,0,0,1,2.38.16,15.74,15.74,0,0,1,2.12.4v5.72a28.62,28.62,0,0,0,.22,3.91,14.27,14.27,0,0,0,.58,2.61Zm-.92-10.58c-.21,0-.5-.1-.89-.16a10.25,10.25,0,0,0-1.51-.09,3.79,3.79,0,0,0-2,.49A3.62,3.62,0,0,0,133.86,14a5.58,5.58,0,0,0-.68,1.85A11,11,0,0,0,133,18a5.43,5.43,0,0,0,.14,1.31,4,4,0,0,0,.38,1,2.31,2.31,0,0,0,.57.68,1.11,1.11,0,0,0,.69.24,1.54,1.54,0,0,0,.83-.27,4.29,4.29,0,0,0,.84-.74,8.61,8.61,0,0,0,.8-1.06,13.18,13.18,0,0,0,.74-1.27c.23-.45.45-.91.64-1.36s.37-.9.51-1.32.24-.79.32-1.13a4,4,0,0,0,.12-.85Z" transform="translate(0 0)"/><path class="cls-1" d="M153.4,13.34c-.2-.12-.43-.25-.7-.39a7.48,7.48,0,0,0-.85-.37,7.15,7.15,0,0,0-1-.29,4.86,4.86,0,0,0-1.09-.12,3.64,3.64,0,0,0-1.13.15,2.22,2.22,0,0,0-.74.37,1.38,1.38,0,0,0-.4.52,1.47,1.47,0,0,0-.13.56,1.7,1.7,0,0,0,.1.57,1.1,1.1,0,0,0,.42.45,3.57,3.57,0,0,0,.89.41c.38.13.9.27,1.55.42a10.29,10.29,0,0,1,1.57.47,4.94,4.94,0,0,1,1.3.73,3.34,3.34,0,0,1,.87,1.07,3.5,3.5,0,0,1,0,3,4,4,0,0,1-1,1.25,4.77,4.77,0,0,1-1.5.84,5.62,5.62,0,0,1-1.86.3,9.55,9.55,0,0,1-1.44-.11,9.67,9.67,0,0,1-1.31-.31,6.27,6.27,0,0,1-1.11-.46,5.54,5.54,0,0,1-.88-.54l.62-2.21a6.08,6.08,0,0,0,.94.67,7.44,7.44,0,0,0,2.19.87,5,5,0,0,0,1.05.12,3.43,3.43,0,0,0,1-.14,3.14,3.14,0,0,0,.78-.37,1.71,1.71,0,0,0,.51-.53,1.2,1.2,0,0,0,.18-.62A1.44,1.44,0,0,0,152,19a1.58,1.58,0,0,0-.51-.58,4.74,4.74,0,0,0-1-.53,14,14,0,0,0-1.69-.52,7.87,7.87,0,0,1-1.83-.64,4,4,0,0,1-1.11-.81,2.57,2.57,0,0,1-.54-1,4,4,0,0,1-.15-1.1,3,3,0,0,1,.09-.66,3.58,3.58,0,0,1,.31-.79,3.8,3.8,0,0,1,.57-.82,3.55,3.55,0,0,1,.88-.71,4.87,4.87,0,0,1,1.24-.51,6.21,6.21,0,0,1,1.65-.2,8.26,8.26,0,0,1,1.25.09,7.72,7.72,0,0,1,1.07.23,6.61,6.61,0,0,1,.89.32,7.13,7.13,0,0,1,.73.35Z" transform="translate(0 0)"/><path class="cls-2" d="M35.07,0,18.15,3.79V32l.15,0,17.2-3.82a1.05,1.05,0,0,0,.79-1V1A1,1,0,0,0,35.07,0Z" transform="translate(0 0)"/><path class="cls-3" d="M18.3,32" transform="translate(0 0)"/><path class="cls-1" d="M18,32l.16,0V3.79L1.23,0A1,1,0,0,0,0,1V27.18a1.07,1.07,0,0,0,.79,1L18,32Z" transform="translate(0 0)"/><path class="cls-4" d="M21.94,8.8a2.31,2.31,0,0,0,1.71,2.92,2.35,2.35,0,0,0,2.81-1.93,2.32,2.32,0,1,0-4.52-1Z" transform="translate(0 0)"/><path class="cls-4" d="M21.94,18.43a2.31,2.31,0,0,0,1.71,2.91,2.35,2.35,0,0,0,2.81-1.93,2.32,2.32,0,1,0-4.52-1Z" transform="translate(0 0)"/><path class="cls-4" d="M14.35,18.43a2.31,2.31,0,0,1-1.7,2.91,2.36,2.36,0,0,1-2.82-1.93,2.37,2.37,0,0,1,1.74-2.93A2.34,2.34,0,0,1,14.35,18.43Z" transform="translate(0 0)"/><path class="cls-4" d="M8.3,7.34a2.31,2.31,0,0,1-1.7,2.91A2.36,2.36,0,0,1,3.78,8.32,2.37,2.37,0,0,1,5.52,5.39,2.33,2.33,0,0,1,8.3,7.34Z" transform="translate(0 0)"/></svg>